<svg version="1.1" id="Layer_1" xmlns="http://www.w3.org/2000/svg" xmlns:xlink="http://www.w3.org/1999/xlink" x="0px" y="0px"
	 width="100%" viewBox="0 0 455 143" enable-background="new 0 0 455 143" xml:space="preserve">
<path fill="#0A121C" opacity="1.000000" stroke="none" 
	d="
M293.000000,144.000000 
	C195.333328,144.000000 98.166664,144.000000 1.000000,144.000000 
	C1.000000,96.333336 1.000000,48.666668 1.000000,1.000000 
	C152.666672,1.000000 304.333344,1.000000 456.000000,1.000000 
	C456.000000,48.666668 456.000000,96.333336 456.000000,144.000000 
	C401.833344,144.000000 347.666656,144.000000 293.000000,144.000000 
M178.677460,105.535698 
	C178.423492,105.034088 178.169525,104.532478 178.071274,103.146515 
	C178.698380,97.092567 179.325470,91.038612 180.279343,84.468079 
	C180.694534,79.982208 177.850922,80.552628 174.347626,80.921906 
	C173.902374,81.048157 173.457108,81.174416 172.361496,81.045471 
	C171.899185,81.049225 171.436874,81.052979 170.975632,80.994331 
	C170.975632,80.994331 170.927460,81.034035 170.629730,80.291908 
	C170.320557,78.362152 170.011383,76.432396 169.626648,74.360184 
	C169.626648,74.360184 169.483398,74.286095 169.138565,73.831970 
	C168.094330,73.893188 167.050095,73.954407 165.281540,74.032158 
	C162.641235,75.649353 161.313446,77.817604 162.234573,81.540268 
	C162.518890,82.016022 162.803207,82.491783 162.903275,83.636604 
	C162.945251,84.094353 162.987228,84.552109 162.570999,85.442863 
	C162.865433,86.417068 163.159851,87.391273 163.454285,88.365479 
	C164.293900,87.907257 165.133514,87.449043 166.591080,86.569214 
	C167.394119,86.003860 168.197174,85.438499 169.694611,85.485245 
	C169.930710,86.662659 170.166809,87.840073 170.046432,89.632050 
	C170.059219,90.097099 170.072006,90.562157 169.722092,91.443634 
	C169.716797,91.971664 169.711487,92.499702 169.292999,93.863869 
	C169.388199,97.567810 169.483398,101.271744 169.427673,105.660553 
	C170.202866,107.333832 170.978043,109.007118 171.803970,111.190208 
	C172.195648,111.462776 172.587311,111.735344 173.321915,112.631927 
	C175.821030,112.548851 178.320160,112.465767 181.476486,112.366119 
	C183.632477,109.912270 185.788467,107.458420 188.700684,105.164703 
	C189.498383,106.098320 190.296082,107.031944 191.056702,108.676659 
	C192.502655,110.749687 193.948608,112.822723 195.579697,115.498009 
	C197.058090,116.218689 198.536469,116.939369 200.775803,117.974197 
	C201.844238,117.841721 202.912674,117.709236 204.629517,117.692131 
	C205.813568,116.818489 206.997604,115.944847 208.785019,114.857391 
	C209.949463,113.142830 211.113907,111.428268 212.862213,109.209312 
	C213.914871,108.786568 214.967514,108.363815 216.247559,108.605179 
	C218.825897,109.598663 221.404221,110.592148 224.582275,111.731003 
	C225.376633,111.149994 226.170990,110.568985 227.637100,109.778374 
	C228.721802,107.710953 229.806488,105.643524 231.754471,103.456970 
	C232.256500,104.315857 232.640305,105.278511 233.284546,106.012589 
	C234.742310,107.673630 236.286407,110.445030 237.873505,110.499756 
	C239.765701,110.564995 241.739563,108.262138 244.072830,106.317123 
	C244.332733,104.529686 244.592636,102.742256 245.182236,100.664513 
	C245.109772,100.114014 245.037323,99.563515 245.132523,98.270103 
	C246.004166,96.546333 246.875793,94.822556 248.660156,93.048859 
	C249.170898,93.353470 249.681641,93.658089 250.146942,94.785255 
	C250.369049,96.132370 250.591156,97.479477 250.559265,99.362816 
	C250.758286,99.899300 250.957291,100.435783 251.181015,101.645416 
	C252.302521,103.224167 253.424026,104.802917 254.830383,106.953041 
	C255.600922,107.155258 256.371460,107.357475 257.872223,107.792969 
	C264.653564,108.763000 265.166290,100.474533 269.471924,99.369293 
	C272.689240,103.331207 275.557556,106.863380 278.886780,110.935707 
	C282.553375,112.899925 286.120758,113.176155 290.120361,110.087341 
	C291.883667,108.192497 293.647003,106.297653 295.008606,104.834496 
	C297.544800,107.528870 299.930573,110.063431 302.719177,113.007858 
	C303.793732,112.928734 304.868286,112.849602 306.656433,112.837166 
	C314.117096,109.956261 323.795685,93.201904 322.059662,85.816574 
	C321.893555,85.109985 320.065094,84.794159 318.344452,84.448509 
	C317.033539,88.301430 315.722626,92.154350 313.961700,96.520317 
	C313.690277,97.362892 313.418854,98.205460 312.673889,99.492088 
	C312.161652,100.675240 311.649445,101.858383 310.634796,103.336617 
	C310.411743,103.858917 310.188690,104.381210 309.169495,105.138832 
	C308.124359,105.060760 307.079193,104.982689 305.974731,104.204666 
	C305.741211,103.807335 305.507660,103.410004 305.448883,102.505577 
	C305.278381,102.011772 305.107880,101.517967 305.128571,100.100464 
	C305.058746,93.390785 304.988892,86.681107 305.294189,79.346947 
	C305.322571,77.891197 305.350922,76.435455 305.715668,74.146057 
	C305.778473,71.753761 305.841278,69.361465 306.245789,66.440536 
	C306.245300,65.618828 306.244781,64.797127 306.619385,63.159702 
	C306.739929,60.770924 306.860504,58.382149 307.369415,55.419357 
	C307.422943,54.276611 307.476471,53.133869 307.853271,51.136208 
	C308.061707,49.317047 308.457550,47.495918 308.438446,45.679153 
	C308.401917,42.207069 307.030304,39.866104 302.344055,40.172661 
	C301.000397,41.449989 299.656708,42.727318 297.962952,44.618221 
	C297.978851,45.080143 297.994781,45.542065 297.607330,46.616081 
	C297.559265,48.079998 297.511169,49.543915 297.159485,51.825146 
	C297.128693,53.558071 297.097870,55.290997 296.701080,57.649651 
	C296.632843,59.102478 296.564606,60.555305 296.192474,62.843704 
	C296.164581,64.908203 296.136688,66.972710 295.766815,69.634956 
	C295.515137,70.757919 295.263489,71.880890 294.457886,72.930962 
	C294.287476,73.006096 294.117065,73.081223 293.510529,72.692657 
	C292.337372,72.279228 291.164246,71.865807 289.196716,71.079376 
	C287.466919,71.181129 285.737122,71.282890 283.457184,71.270744 
	C282.984131,71.547157 282.511078,71.823570 281.331573,72.020790 
	C278.598480,75.028358 275.865417,78.035927 272.663849,81.414970 
	C272.465759,81.943565 272.267670,82.472153 271.870392,83.754852 
	C268.928467,89.237511 265.986542,94.720169 262.259979,100.305885 
	C261.471100,100.275848 260.682251,100.245811 259.667572,99.639267 
	C259.539398,99.477539 259.411194,99.315811 259.460693,98.604256 
	C259.262207,98.078712 259.063751,97.553169 258.934479,96.135399 
	C258.908356,93.749077 258.882202,91.362755 259.189056,88.673340 
	C259.158051,88.108818 259.127014,87.544296 259.361450,86.279114 
	C259.457336,84.555389 259.553192,82.831657 259.575226,80.448509 
	C257.719940,80.312393 255.864639,80.176270 253.294083,80.026627 
	C247.725555,81.896622 246.655777,87.073029 244.085571,91.775276 
	C243.654877,91.867203 243.224197,91.959137 242.853333,91.202408 
	C242.855545,89.787216 242.857773,88.372032 243.210312,86.541245 
	C243.214737,86.018410 243.219147,85.495575 243.642838,84.226387 
	C243.961777,81.157295 244.280716,78.088203 244.680832,74.413094 
	C243.781174,73.730064 242.881516,73.047035 241.360214,72.036026 
	C240.911194,72.126732 240.462158,72.217445 239.448700,72.142532 
	C238.968079,72.434410 238.487473,72.726288 237.333176,73.019791 
	C236.293701,74.368294 235.254227,75.716789 233.789612,77.543144 
	C233.695404,78.369713 233.601196,79.196274 233.180984,80.806717 
	C233.148544,82.213516 233.116119,83.620308 232.657272,85.603767 
	C231.942017,88.410217 231.226761,91.216675 230.193069,94.733101 
	C229.396698,97.291931 228.600311,99.850769 227.194778,102.875496 
	C226.097549,103.334900 225.000336,103.794304 223.913345,104.086609 
	C223.913345,104.086609 223.746246,104.096870 223.694626,103.523125 
	C223.391815,103.040405 223.088989,102.557693 222.879639,101.146523 
	C222.877991,97.418167 222.876343,93.689819 223.173859,89.638023 
	C223.157745,89.076225 223.141632,88.514435 223.447815,87.245415 
	C223.622391,85.160469 223.796967,83.075523 224.242065,80.648109 
	C224.136642,80.107780 224.031219,79.567451 224.010345,78.413963 
	C223.653214,77.949821 223.296097,77.485687 222.769958,76.420479 
	C221.842041,76.051949 220.914108,75.683418 219.230820,74.948204 
	C218.161163,75.129807 217.091522,75.311409 215.277023,75.333725 
	C214.538300,75.170074 213.799576,75.006432 212.863571,74.189354 
	C210.900589,73.151894 208.937592,72.114433 206.393845,70.736282 
	C203.473190,71.777725 200.552536,72.819168 197.007401,74.060150 
	C195.057724,77.389954 193.108032,80.719757 190.664856,84.569122 
	C189.210434,89.050552 187.756012,93.531990 185.859695,98.580833 
	C184.248779,101.278198 182.637863,103.975563 180.319717,106.523781 
	C179.843231,106.452675 179.366760,106.381569 178.912308,106.104355 
	C178.912308,106.104355 178.705017,106.104080 178.677460,105.535698 
M79.181068,110.593437 
	C68.405281,109.574585 57.645531,108.238266 46.845833,107.692589 
	C42.505039,107.473259 37.960255,108.593834 33.724407,109.839424 
	C30.270332,110.855125 30.102703,113.342590 33.337112,114.912079 
	C36.883678,116.633049 40.737991,117.989578 44.606533,118.731674 
	C63.819904,122.417389 83.252502,123.896431 102.780464,122.882133 
	C116.270691,122.181450 129.716949,120.648094 141.864487,113.859383 
	C149.856064,109.393250 155.064713,103.148918 154.319336,93.409424 
	C153.592117,83.907349 147.707672,78.572334 139.323578,75.339745 
	C137.441284,74.614006 135.636780,73.686485 132.822433,72.410110 
	C135.755341,70.838928 137.717773,69.983345 139.467072,68.810013 
	C143.181992,66.318260 147.192169,64.077919 150.358124,60.992470 
	C159.311966,52.266357 158.716431,40.557968 149.586548,32.019981 
	C143.324005,26.163437 135.556122,23.699947 127.580124,22.035652 
	C99.652763,16.208233 72.238609,19.783798 45.309361,27.841927 
	C39.747971,29.506079 34.694241,33.188671 29.764528,36.477562 
	C27.890055,37.728134 26.711462,40.365112 25.817072,42.609821 
	C25.298439,43.911472 25.529247,45.985584 26.292057,47.135387 
	C26.708860,47.763641 29.077364,47.561451 30.321297,47.089516 
	C34.050827,45.674583 37.604015,43.797695 41.325405,42.357979 
	C64.727242,33.304386 89.091393,30.671116 113.962730,31.864796 
	C123.073051,32.302040 131.684479,34.858273 139.554993,39.571472 
	C146.624557,43.805035 147.066116,51.420914 140.357819,56.226990 
	C137.555069,58.234993 134.358231,59.832859 131.134949,61.090008 
	C116.443268,66.820076 101.012482,67.773422 85.460449,67.765381 
	C79.081116,67.762077 79.637161,67.701370 79.078705,61.451714 
	C78.606339,56.165443 77.283257,50.730297 75.137024,45.893345 
	C73.566948,42.354866 71.045547,42.864418 69.702942,46.566750 
	C68.575531,49.675674 67.601540,52.919144 67.159714,56.184246 
	C65.150032,71.035446 67.137062,85.759972 69.035248,100.461052 
	C69.194191,101.692017 70.407784,102.786812 71.131393,103.944878 
	C72.327843,103.174004 74.125946,102.669273 74.606949,101.581909 
	C76.001427,98.429543 77.370041,95.112000 77.831955,91.733910 
	C78.703239,85.361885 78.932953,78.902145 79.434807,72.408073 
	C80.396240,72.276123 81.059669,72.032654 81.673889,72.123146 
	C95.828514,74.208450 110.060974,75.907196 124.084717,78.665390 
	C129.266357,79.684517 134.460159,82.536301 138.756149,85.746353 
	C146.332184,91.407310 145.357193,99.229347 137.072495,103.699310 
	C134.748230,104.953354 132.236526,105.983727 129.691879,106.685455 
	C113.428596,111.170273 96.788612,111.189041 79.181068,110.593437 
M354.153717,67.350250 
	C355.831360,68.719284 357.461151,70.152679 359.197083,71.443336 
	C362.369110,73.801773 362.591339,75.924484 359.244812,78.463112 
	C355.801025,81.075500 352.482788,83.894012 349.366302,86.889389 
	C340.979340,94.950394 332.579346,103.010284 324.538177,111.409210 
	C322.700348,113.328819 322.287750,116.612984 321.219208,119.269127 
	C321.832611,119.637238 322.446014,120.005341 323.059418,120.373444 
	C324.695679,119.150902 326.664062,118.199135 327.916107,116.663368 
	C338.860229,103.239403 352.628357,92.961945 365.917419,82.134338 
	C368.382568,80.125809 370.185852,80.377151 372.370605,82.468643 
	C376.820221,86.728271 381.397125,90.857262 385.981140,94.973778 
	C398.859375,106.538582 411.641846,118.217072 424.794159,129.462357 
	C426.871552,131.238525 430.673492,130.997650 433.678070,131.689362 
	C432.528839,129.161575 431.388855,126.629471 430.217712,124.111870 
	C430.084076,123.824631 429.779358,123.615234 429.548157,123.375381 
	C414.522003,107.788666 399.517426,92.181107 384.456543,76.628014 
	C379.181335,71.180389 379.141632,71.270050 385.176239,66.266747 
	C398.125214,55.530666 411.097931,44.821907 423.934021,33.952129 
	C426.245819,31.994473 427.950287,29.319603 430.754852,26.007940 
	C421.270264,24.980652 415.858002,29.566490 410.712616,33.729317 
	C399.201263,43.042454 388.073761,52.836384 376.940186,62.605717 
	C374.134583,65.067520 372.559692,65.247978 369.683380,62.336338 
	C357.402924,49.905186 344.841064,37.746655 332.145538,25.738493 
	C330.718018,24.388275 326.684143,23.498472 325.805695,24.366125 
	C324.234192,25.918337 323.017883,29.349899 323.677399,31.317205 
	C324.956390,35.132317 327.133423,38.932472 329.835571,41.930016 
	C337.525574,50.460632 345.666687,58.584579 354.153717,67.350250 
z"/>
<path fill="#E4F0F2" opacity="1.000000" stroke="none" 
	d="
M79.646561,110.619896 
	C96.788612,111.189041 113.428596,111.170273 129.691879,106.685455 
	C132.236526,105.983727 134.748230,104.953354 137.072495,103.699310 
	C145.357193,99.229347 146.332184,91.407310 138.756149,85.746353 
	C134.460159,82.536301 129.266357,79.684517 124.084717,78.665390 
	C110.060974,75.907196 95.828514,74.208450 81.673889,72.123146 
	C81.059669,72.032654 80.396240,72.276123 79.434807,72.408073 
	C78.932953,78.902145 78.703239,85.361885 77.831955,91.733910 
	C77.370041,95.112000 76.001427,98.429543 74.606949,101.581909 
	C74.125946,102.669273 72.327843,103.174004 71.131393,103.944870 
	C70.407784,102.786812 69.194191,101.692017 69.035248,100.461052 
	C67.137062,85.759972 65.150032,71.035446 67.159714,56.184246 
	C67.601540,52.919144 68.575531,49.675674 69.702942,46.566750 
	C71.045547,42.864418 73.566948,42.354866 75.137024,45.893345 
	C77.283257,50.730297 78.606339,56.165443 79.078705,61.451714 
	C79.637161,67.701370 79.081116,67.762077 85.460449,67.765381 
	C101.012482,67.773422 116.443268,66.820076 131.134949,61.090008 
	C134.358231,59.832859 137.555069,58.234993 140.357819,56.226990 
	C147.066116,51.420914 146.624557,43.805035 139.554993,39.571472 
	C131.684479,34.858273 123.073051,32.302040 113.962730,31.864796 
	C89.091393,30.671116 64.727242,33.304386 41.325405,42.357979 
	C37.604015,43.797695 34.050827,45.674583 30.321297,47.089516 
	C29.077364,47.561451 26.708860,47.763641 26.292057,47.135387 
	C25.529247,45.985584 25.298439,43.911472 25.817072,42.609821 
	C26.711462,40.365112 27.890055,37.728134 29.764528,36.477562 
	C34.694241,33.188671 39.747971,29.506079 45.309361,27.841927 
	C72.238609,19.783798 99.652763,16.208233 127.580124,22.035652 
	C135.556122,23.699947 143.324005,26.163437 149.586548,32.019981 
	C158.716431,40.557968 159.311966,52.266357 150.358124,60.992470 
	C147.192169,64.077919 143.181992,66.318260 139.467072,68.810013 
	C137.717773,69.983345 135.755341,70.838928 132.822433,72.410110 
	C135.636780,73.686485 137.441284,74.614006 139.323578,75.339745 
	C147.707672,78.572334 153.592117,83.907349 154.319336,93.409424 
	C155.064713,103.148918 149.856064,109.393250 141.864487,113.859383 
	C129.716949,120.648094 116.270691,122.181450 102.780464,122.882133 
	C83.252502,123.896431 63.819904,122.417389 44.606533,118.731674 
	C40.737991,117.989578 36.883678,116.633049 33.337112,114.912079 
	C30.102703,113.342590 30.270332,110.855125 33.724407,109.839424 
	C37.960255,108.593834 42.505039,107.473259 46.845833,107.692589 
	C57.645531,108.238266 68.405281,109.574585 79.646561,110.619896 
z"/>
<path fill="#E8F5F7" opacity="1.000000" stroke="none" 
	d="
M181.026962,106.672943 
	C182.637863,103.975563 184.248779,101.278198 186.406189,98.195312 
	C188.354568,93.223038 189.756454,88.636299 191.158340,84.049553 
	C193.108032,80.719757 195.057724,77.389954 197.713104,73.964951 
	C201.270737,72.938820 204.122681,72.007896 206.974609,71.076965 
	C208.937592,72.114433 210.900589,73.151894 212.983719,74.832489 
	C214.076538,75.481430 215.049194,75.487221 216.021866,75.493011 
	C217.091522,75.311409 218.161163,75.129807 219.693176,75.436569 
	C221.083359,76.290474 222.011169,76.656013 222.938980,77.021545 
	C223.296097,77.485687 223.653214,77.949821 223.774384,78.877808 
	C223.682785,79.891289 223.827164,80.440933 223.971527,80.990578 
	C223.796967,83.075523 223.622391,85.160469 223.066071,87.736954 
	C222.747772,88.806145 222.811234,89.383804 222.874710,89.961464 
	C222.876343,93.689819 222.877991,97.418167 222.658386,101.792267 
	C222.873505,102.990967 223.309875,103.543922 223.746246,104.096878 
	C223.746246,104.096870 223.913345,104.086609 224.006500,104.474258 
	C226.740005,106.167686 227.737061,104.991173 227.803940,102.409599 
	C228.600311,99.850769 229.396698,97.291931 230.656555,94.255424 
	C231.774597,90.860870 232.429138,87.943985 233.083694,85.027107 
	C233.116119,83.620308 233.148544,82.213516 233.609924,80.330536 
	C234.097473,78.924660 234.156113,77.994980 234.214752,77.065292 
	C235.254227,75.716789 236.293701,74.368294 237.829437,73.220009 
	C238.888199,73.049538 239.450668,72.678848 240.013138,72.308159 
	C240.462158,72.217445 240.911194,72.126732 241.717041,72.486313 
	C242.915802,73.630760 243.757721,74.324936 244.599640,75.019112 
	C244.280716,78.088203 243.961777,81.157295 243.221848,84.685936 
	C242.820557,85.749268 242.840271,86.353058 242.859985,86.956841 
	C242.857773,88.372032 242.855545,89.787216 242.609161,91.836533 
	C242.804459,92.922775 243.243896,93.374878 243.683350,93.826981 
	C244.041580,93.098289 244.399811,92.369598 244.758041,91.640907 
	C246.655777,87.073029 247.725555,81.896622 253.932220,80.254883 
	C256.263245,80.691406 257.956146,80.899666 259.649048,81.107933 
	C259.553192,82.831657 259.457336,84.555389 259.004425,86.755737 
	C258.716949,87.813721 258.786530,88.395081 258.856079,88.976433 
	C258.882202,91.362755 258.908356,93.749077 258.703857,96.714844 
	C258.743134,97.914215 259.013031,98.534149 259.282959,99.154076 
	C259.411194,99.315811 259.539398,99.477539 259.750671,100.262627 
	C260.904022,100.658264 261.974335,100.430542 263.044617,100.202820 
	C265.986542,94.720169 268.928467,89.237511 272.237518,83.337448 
	C272.780548,82.294533 272.956451,81.669022 273.132385,81.043503 
	C275.865417,78.035927 278.598480,75.028358 281.848022,72.244965 
	C282.912079,72.107643 283.459717,71.746140 284.007324,71.384644 
	C285.737122,71.282890 287.466919,71.181129 289.680420,71.543304 
	C291.424988,72.390259 292.685822,72.773300 293.946655,73.156342 
	C294.117065,73.081223 294.287476,73.006096 295.060974,72.900337 
	C295.812317,71.592209 295.960571,70.314713 296.108826,69.037209 
	C296.136688,66.972710 296.164581,64.908203 296.642578,62.299042 
	C297.084137,60.177563 297.075592,58.600742 297.067078,57.023922 
	C297.097870,55.290997 297.128693,53.558071 297.614075,51.291409 
	C298.049347,49.173111 298.029999,47.588547 298.010681,46.003986 
	C297.994781,45.542065 297.978851,45.080143 298.438965,44.228195 
	C300.278473,42.675434 301.641968,41.512703 303.005432,40.349976 
	C307.030304,39.866104 308.401917,42.207069 308.438446,45.679153 
	C308.457550,47.495918 308.061707,49.317047 307.401978,51.675934 
	C306.960785,53.474899 306.970917,54.734135 306.981049,55.993370 
	C306.860504,58.382149 306.739929,60.770924 306.155334,63.593132 
	C305.762238,65.007431 305.833160,65.988304 305.904083,66.969170 
	C305.841278,69.361465 305.778473,71.753761 305.205658,74.569962 
	C302.898712,75.770081 301.101807,76.546295 299.064545,77.426323 
	C301.513550,78.490974 303.216309,79.231201 304.919067,79.971428 
	C304.988892,86.681107 305.058746,93.390785 304.847412,100.700699 
	C304.802216,101.871506 305.038177,102.442085 305.274109,103.012665 
	C305.507660,103.410004 305.741211,103.807335 306.066284,104.899178 
	C307.852325,107.709717 309.142792,107.596512 309.965637,104.903503 
	C310.188690,104.381210 310.411743,103.858917 311.188019,103.118118 
	C312.209961,101.615753 312.678680,100.331894 313.147430,99.048035 
	C313.418854,98.205460 313.690277,97.362892 314.499908,96.147003 
	C316.361542,91.948097 317.684937,88.122513 319.008362,84.296928 
	C320.065094,84.794159 321.893555,85.109985 322.059662,85.816574 
	C323.795685,93.201904 314.117096,109.956261 305.992798,112.565964 
	C304.324921,112.395844 303.320618,112.496918 302.316345,112.597992 
	C299.930573,110.063431 297.544800,107.528870 295.008606,104.834496 
	C293.647003,106.297653 291.883667,108.192497 289.383911,110.136620 
	C285.240295,110.255783 281.833069,110.325668 278.425873,110.395554 
	C275.557556,106.863380 272.689240,103.331207 269.471924,99.369293 
	C265.166290,100.474533 264.653564,108.763000 257.393799,107.373260 
	C256.125427,106.762924 255.335480,106.572289 254.545532,106.381668 
	C253.424026,104.802917 252.302521,103.224167 251.355530,101.176651 
	C251.291122,100.080780 251.052200,99.453690 250.813278,98.826591 
	C250.591156,97.479477 250.369049,96.132370 250.377045,94.178932 
	C250.209061,92.818359 249.811005,92.064110 249.412933,91.309860 
	C248.857758,91.906158 248.302597,92.502464 247.747437,93.098785 
	C246.875793,94.822556 246.004166,96.546333 244.851929,98.789062 
	C244.665085,99.856949 244.758804,100.405884 244.852539,100.954819 
	C244.592636,102.742256 244.332733,104.529686 243.528625,106.723602 
	C237.337936,110.331108 236.740189,110.045776 234.855942,103.640427 
	C234.612045,102.811333 233.764435,102.159828 233.196472,101.426071 
	C232.428040,102.142746 231.659622,102.859428 230.891190,103.576103 
	C229.806488,105.643524 228.721802,107.710953 226.982147,109.877258 
	C225.545639,110.512642 224.764099,111.049141 223.982559,111.585632 
	C221.404221,110.592148 218.825897,109.598663 216.058594,107.929993 
	C212.397141,104.751137 212.410217,107.338280 212.278351,109.713707 
	C211.113907,111.428268 209.949463,113.142830 208.147247,114.969635 
	C206.333344,115.913498 205.157227,116.745125 203.981110,117.576752 
	C202.912674,117.709236 201.844238,117.841721 200.312256,117.513977 
	C198.363983,116.334419 196.879272,115.615089 195.394562,114.895752 
	C193.948608,112.822723 192.502655,110.749687 191.282776,108.106949 
	C190.749710,106.150261 189.990555,104.763290 189.231415,103.376312 
	C188.802429,103.919067 188.373444,104.461823 187.944458,105.004570 
	C185.788467,107.458420 183.632477,109.912270 180.655609,112.266037 
	C177.549469,112.113274 175.264236,112.060593 172.978989,112.007904 
	C172.587311,111.735344 172.195648,111.462776 171.822906,110.556625 
	C171.087433,108.273926 170.333023,106.624809 169.578613,104.975685 
	C169.483398,101.271744 169.388199,97.567810 169.721313,93.364975 
	C170.128006,92.253128 170.106400,91.640167 170.084778,91.027206 
	C170.072006,90.562157 170.059219,90.097099 170.520721,89.222214 
	C171.110962,87.562080 171.226929,86.311790 171.342896,85.061493 
	C170.561996,84.998718 169.781113,84.935936 169.000214,84.873154 
	C168.197174,85.438499 167.394119,86.003860 165.981232,86.724449 
	C164.590668,86.256409 163.809937,85.633133 163.029205,85.009857 
	C162.987228,84.552109 162.945251,84.094353 163.188416,83.142662 
	C163.103348,82.093788 162.733109,81.538857 162.362885,80.983925 
	C161.313446,77.817604 162.641235,75.649353 165.927032,74.278473 
	C167.542816,74.445221 168.513107,74.365654 169.483398,74.286095 
	C169.483398,74.286095 169.626648,74.360184 169.491821,74.845108 
	C169.880493,77.231361 170.403976,79.132698 170.927460,81.034035 
	C170.927460,81.034035 170.975632,80.994331 171.015442,81.296051 
	C171.707458,81.498741 172.359665,81.399704 173.011856,81.300667 
	C173.457108,81.174416 173.902374,81.048157 174.933884,81.236298 
	C176.997620,82.695351 178.475098,83.840012 179.952576,84.984665 
	C179.325470,91.038612 178.698380,97.092567 177.799377,103.756897 
	C177.919998,104.946220 178.312500,105.525154 178.705017,106.104080 
	C178.705017,106.104080 178.912308,106.104355 178.961136,106.449463 
	C179.682297,106.754028 180.354630,106.713486 181.026962,106.672943 
M213.329193,86.760933 
	C213.067947,86.165649 212.806686,85.570374 212.211243,84.286888 
	C211.143600,82.125160 210.075958,79.963432 208.872757,77.198189 
	C207.912918,77.408447 206.953064,77.618706 205.510315,78.320915 
	C197.601624,86.089272 198.355789,96.013924 199.087250,105.733627 
	C199.250595,107.903854 201.631531,109.907188 202.991486,111.987350 
	C204.910950,110.418999 207.967331,109.183830 208.542419,107.221481 
	C210.473679,100.631638 211.520294,93.782555 213.329193,86.760933 
M291.772095,99.993988 
	C292.532837,94.794853 293.893066,89.584366 293.794983,84.401482 
	C293.747742,81.904167 290.952789,79.458839 289.402039,76.989967 
	C287.117096,78.886314 283.631775,80.366043 282.798706,82.766304 
	C281.098633,87.664612 280.196869,93.060463 280.212891,98.247513 
	C280.221832,101.148071 282.062317,105.692383 284.255829,106.578239 
	C288.273651,108.200813 289.759888,103.678246 291.772095,99.993988 
M297.206238,93.984291 
	C297.617798,95.528580 298.029388,97.072876 298.440948,98.617172 
	C299.029327,98.538025 299.617706,98.458878 300.206085,98.379730 
	C300.206085,96.771309 300.295441,95.151108 300.086823,93.570213 
	C300.062256,93.384148 298.400421,93.414154 297.206238,93.984291 
M303.980988,56.759922 
	C303.664246,56.061813 303.347504,55.363705 303.030762,54.665596 
	C302.710846,54.756378 302.390930,54.847164 302.071014,54.937950 
	C302.206055,56.721981 302.341095,58.506016 302.476135,60.290047 
	C302.839722,60.273697 303.203278,60.257351 303.566864,60.241001 
	C303.707825,59.327343 303.848785,58.413685 303.980988,56.759922 
z"/>
<path fill="#E3EFF1" opacity="1.000000" stroke="none" 
	d="
M353.891998,67.109421 
	C345.666687,58.584579 337.525574,50.460632 329.835571,41.930016 
	C327.133423,38.932472 324.956390,35.132317 323.677399,31.317205 
	C323.017883,29.349899 324.234192,25.918337 325.805695,24.366125 
	C326.684143,23.498472 330.718018,24.388275 332.145538,25.738493 
	C344.841064,37.746655 357.402924,49.905186 369.683380,62.336338 
	C372.559692,65.247978 374.134583,65.067520 376.940186,62.605717 
	C388.073761,52.836384 399.201263,43.042454 410.712616,33.729317 
	C415.858002,29.566490 421.270264,24.980652 430.754852,26.007940 
	C427.950287,29.319603 426.245819,31.994473 423.934021,33.952129 
	C411.097931,44.821907 398.125214,55.530666 385.176239,66.266747 
	C379.141632,71.270050 379.181335,71.180389 384.456543,76.628014 
	C399.517426,92.181107 414.522003,107.788666 429.548157,123.375381 
	C429.779358,123.615234 430.084076,123.824631 430.217712,124.111870 
	C431.388855,126.629471 432.528839,129.161575 433.678070,131.689362 
	C430.673492,130.997650 426.871552,131.238525 424.794159,129.462357 
	C411.641846,118.217072 398.859375,106.538582 385.981140,94.973778 
	C381.397125,90.857262 376.820221,86.728271 372.370605,82.468643 
	C370.185852,80.377151 368.382568,80.125809 365.917419,82.134338 
	C352.628357,92.961945 338.860229,103.239403 327.916107,116.663368 
	C326.664062,118.199135 324.695679,119.150902 323.059418,120.373444 
	C322.446014,120.005341 321.832611,119.637238 321.219208,119.269127 
	C322.287750,116.612984 322.700348,113.328819 324.538177,111.409210 
	C332.579346,103.010284 340.979340,94.950394 349.366302,86.889389 
	C352.482788,83.894012 355.801025,81.075500 359.244812,78.463112 
	C362.591339,75.924484 362.369110,73.801773 359.197083,71.443336 
	C357.461151,70.152679 355.831360,68.719284 353.891998,67.109421 
z"/>
<path fill="#E1EDEF" opacity="1.000000" stroke="none" 
	d="
M231.322830,103.516541 
	C231.659622,102.859428 232.428040,102.142746 233.196472,101.426071 
	C233.764435,102.159828 234.612045,102.811333 234.855942,103.640427 
	C236.740189,110.045776 237.337936,110.331108 243.331238,107.057632 
	C241.739563,108.262138 239.765701,110.564995 237.873505,110.499756 
	C236.286407,110.445030 234.742310,107.673630 233.284546,106.012589 
	C232.640305,105.278511 232.256500,104.315857 231.322830,103.516541 
z"/>
<path fill="#E1EDEF" opacity="1.000000" stroke="none" 
	d="
M190.911591,84.309341 
	C189.756454,88.636299 188.354568,93.223038 186.627136,97.911606 
	C187.756012,93.531990 189.210434,89.050552 190.911591,84.309341 
z"/>
<path fill="#E6F2F5" opacity="1.000000" stroke="none" 
	d="
M305.106628,79.659187 
	C303.216309,79.231201 301.513550,78.490974 299.064545,77.426323 
	C301.101807,76.546295 302.898712,75.770081 305.037476,74.986786 
	C305.350922,76.435455 305.322571,77.891197 305.106628,79.659187 
z"/>
<path fill="#E6F2F5" opacity="1.000000" stroke="none" 
	d="
M318.676392,84.372719 
	C317.684937,88.122513 316.361542,91.948097 314.724915,95.890472 
	C315.722626,92.154350 317.033539,88.301430 318.676392,84.372719 
z"/>
<path fill="#BDCAD0" opacity="1.000000" stroke="none" 
	d="
M278.656311,110.665634 
	C281.833069,110.325668 285.240295,110.255783 289.075531,110.248810 
	C286.120758,113.176155 282.553375,112.899925 278.656311,110.665634 
z"/>
<path fill="#E1EDEF" opacity="1.000000" stroke="none" 
	d="
M206.684235,70.906624 
	C204.122681,72.007896 201.270737,72.938820 198.025345,73.865181 
	C200.552536,72.819168 203.473190,71.777725 206.684235,70.906624 
z"/>
<path fill="#E1EDEF" opacity="1.000000" stroke="none" 
	d="
M232.870483,85.315437 
	C232.429138,87.943985 231.774597,90.860870 230.815781,93.900436 
	C231.226761,91.216675 231.942017,88.410217 232.870483,85.315437 
z"/>
<path fill="#E1EDEF" opacity="1.000000" stroke="none" 
	d="
M180.115967,84.726372 
	C178.475098,83.840012 176.997620,82.695351 175.275757,81.318207 
	C177.850922,80.552628 180.694534,79.982208 180.115967,84.726372 
z"/>
<path fill="#E1EDEF" opacity="1.000000" stroke="none" 
	d="
M173.150452,112.319916 
	C175.264236,112.060593 177.549469,112.113274 180.326996,112.274323 
	C178.320160,112.465767 175.821030,112.548851 173.150452,112.319916 
z"/>
<path fill="#E1EDEF" opacity="1.000000" stroke="none" 
	d="
M188.322571,105.084641 
	C188.373444,104.461823 188.802429,103.919067 189.231415,103.376312 
	C189.990555,104.763290 190.749710,106.150261 191.301300,107.751404 
	C190.296082,107.031944 189.498383,106.098320 188.322571,105.084641 
z"/>
<path fill="#E1EDEF" opacity="1.000000" stroke="none" 
	d="
M170.778595,80.662971 
	C170.403976,79.132698 169.880493,77.231361 169.529602,74.916336 
	C170.011383,76.432396 170.320557,78.362152 170.778595,80.662971 
z"/>
<path fill="#E1EDEF" opacity="1.000000" stroke="none" 
	d="
M162.800110,85.226364 
	C163.809937,85.633133 164.590668,86.256409 165.672272,86.935257 
	C165.133514,87.449043 164.293900,87.907257 163.454285,88.365479 
	C163.159851,87.391273 162.865433,86.417068 162.800110,85.226364 
z"/>
<path fill="#E1EDEF" opacity="1.000000" stroke="none" 
	d="
M169.347412,85.179199 
	C169.781113,84.935936 170.561996,84.998718 171.342896,85.061493 
	C171.226929,86.311790 171.110962,87.562080 170.698944,88.914932 
	C170.166809,87.840073 169.930710,86.662659 169.347412,85.179199 
z"/>
<path fill="#B1BEC4" opacity="1.000000" stroke="none" 
	d="
M259.612122,80.778221 
	C257.956146,80.899666 256.263245,80.691406 254.289856,80.261642 
	C255.864639,80.176270 257.719940,80.312393 259.612122,80.778221 
z"/>
<path fill="#E6F2F5" opacity="1.000000" stroke="none" 
	d="
M296.884094,57.336784 
	C297.075592,58.600742 297.084137,60.177563 296.794556,61.881260 
	C296.564606,60.555305 296.632843,59.102478 296.884094,57.336784 
z"/>
<path fill="#E6F2F5" opacity="1.000000" stroke="none" 
	d="
M297.809021,46.310036 
	C298.029999,47.588547 298.049347,49.173111 297.765900,50.882751 
	C297.511169,49.543915 297.559265,48.079998 297.809021,46.310036 
z"/>
<path fill="#E6F2F5" opacity="1.000000" stroke="none" 
	d="
M302.674744,40.261314 
	C301.641968,41.512703 300.278473,42.675434 298.614014,43.921406 
	C299.656708,42.727318 301.000397,41.449989 302.674744,40.261314 
z"/>
<path fill="#E1EDEF" opacity="1.000000" stroke="none" 
	d="
M169.503143,105.318115 
	C170.333023,106.624809 171.087433,108.273926 171.797531,110.301727 
	C170.978043,109.007118 170.202866,107.333832 169.503143,105.318115 
z"/>
<path fill="#E1EDEF" opacity="1.000000" stroke="none" 
	d="
M195.487122,115.196884 
	C196.879272,115.615089 198.363983,116.334419 199.931778,117.356903 
	C198.536469,116.939369 197.058090,116.218689 195.487122,115.196884 
z"/>
<path fill="#E1EDEF" opacity="1.000000" stroke="none" 
	d="
M212.570282,109.461510 
	C212.410217,107.338280 212.397141,104.751137 215.944916,107.597931 
	C214.967514,108.363815 213.914871,108.786568 212.570282,109.461510 
z"/>
<path fill="#E6F2F5" opacity="1.000000" stroke="none" 
	d="
M293.728577,72.924500 
	C292.685822,72.773300 291.424988,72.390259 290.077637,71.729805 
	C291.164246,71.865807 292.337372,72.279228 293.728577,72.924500 
z"/>
<path fill="#E1EDEF" opacity="1.000000" stroke="none" 
	d="
M204.305313,117.634445 
	C205.157227,116.745125 206.333344,115.913498 207.845551,115.076538 
	C206.997604,115.944847 205.813568,116.818489 204.305313,117.634445 
z"/>
<path fill="#E1EDEF" opacity="1.000000" stroke="none" 
	d="
M227.499359,102.642548 
	C227.737061,104.991173 226.740005,106.167686 224.001373,104.557808 
	C225.000336,103.794304 226.097549,103.334900 227.499359,102.642548 
z"/>
<path fill="#E6F2F5" opacity="1.000000" stroke="none" 
	d="
M312.910645,99.270058 
	C312.678680,100.331894 312.209961,101.615753 311.439209,102.970573 
	C311.649445,101.858383 312.161652,100.675240 312.910645,99.270058 
z"/>
<path fill="#E6F2F5" opacity="1.000000" stroke="none" 
	d="
M309.567566,105.021164 
	C309.142792,107.596512 307.852325,107.709717 306.095947,105.249146 
	C307.079193,104.982689 308.124359,105.060760 309.567566,105.021164 
z"/>
<path fill="#AAB7BD" opacity="1.000000" stroke="none" 
	d="
M248.203796,93.073822 
	C248.302597,92.502464 248.857758,91.906158 249.412933,91.309860 
	C249.811005,92.064110 250.209061,92.818359 250.399765,93.767654 
	C249.681641,93.658089 249.170898,93.353470 248.203796,93.073822 
z"/>
<path fill="#E6F2F5" opacity="1.000000" stroke="none" 
	d="
M295.937805,69.336082 
	C295.960571,70.314713 295.812317,71.592209 295.337952,72.936783 
	C295.263489,71.880890 295.515137,70.757919 295.937805,69.336082 
z"/>
<path fill="#E6F2F5" opacity="1.000000" stroke="none" 
	d="
M306.074951,66.704849 
	C305.833160,65.988304 305.762238,65.007431 305.967773,64.000992 
	C306.244781,64.797127 306.245300,65.618828 306.074951,66.704849 
z"/>
<path fill="#E6F2F5" opacity="1.000000" stroke="none" 
	d="
M307.175232,55.706364 
	C306.970917,54.734135 306.960785,53.474899 307.240326,52.103394 
	C307.476471,53.133869 307.422943,54.276611 307.175232,55.706364 
z"/>
<path fill="#E1EDEF" opacity="1.000000" stroke="none" 
	d="
M244.640228,74.716103 
	C243.757721,74.324936 242.915802,73.630760 242.027878,72.650299 
	C242.881516,73.047035 243.781174,73.730064 244.640228,74.716103 
z"/>
<path fill="#B1BEC4" opacity="1.000000" stroke="none" 
	d="
M244.421814,91.708092 
	C244.399811,92.369598 244.041580,93.098289 243.683350,93.826981 
	C243.243896,93.374878 242.804459,92.922775 242.579254,92.260864 
	C243.224197,91.959137 243.654877,91.867203 244.421814,91.708092 
z"/>
<path fill="#E1EDEF" opacity="1.000000" stroke="none" 
	d="
M234.002182,77.304214 
	C234.156113,77.994980 234.097473,78.924660 233.772919,79.938599 
	C233.601196,79.196274 233.695404,78.369713 234.002182,77.304214 
z"/>
<path fill="#BFCCD1" opacity="1.000000" stroke="none" 
	d="
M302.517761,112.802925 
	C303.320618,112.496918 304.324921,112.395844 305.636017,112.532623 
	C304.868286,112.849602 303.793732,112.928734 302.517761,112.802925 
z"/>
<path fill="#E1EDEF" opacity="1.000000" stroke="none" 
	d="
M169.310974,74.059036 
	C168.513107,74.365654 167.542816,74.445221 166.289185,74.270203 
	C167.050095,73.954407 168.094330,73.893188 169.310974,74.059036 
z"/>
<path fill="#E1EDEF" opacity="1.000000" stroke="none" 
	d="
M215.649445,75.413368 
	C215.049194,75.487221 214.076538,75.481430 213.082367,75.159210 
	C213.799576,75.006432 214.538300,75.170074 215.649445,75.413368 
z"/>
<path fill="#E1EDEF" opacity="1.000000" stroke="none" 
	d="
M222.854462,76.721008 
	C222.011169,76.656013 221.083359,76.290474 220.070862,75.619911 
	C220.914108,75.683418 221.842041,76.051949 222.854462,76.721008 
z"/>
<path fill="#E1EDEF" opacity="1.000000" stroke="none" 
	d="
M224.282410,111.658325 
	C224.764099,111.049141 225.545639,110.512642 226.646271,109.982056 
	C226.170990,110.568985 225.376633,111.149994 224.282410,111.658325 
z"/>
<path fill="#B1BEC4" opacity="1.000000" stroke="none" 
	d="
M262.652283,100.254349 
	C261.974335,100.430542 260.904022,100.658264 259.863556,100.550880 
	C260.682251,100.245811 261.471100,100.275848 262.652283,100.254349 
z"/>
<path fill="#B1BEC4" opacity="1.000000" stroke="none" 
	d="
M259.022583,88.824890 
	C258.786530,88.395081 258.716949,87.813721 258.871704,87.106071 
	C259.127014,87.544296 259.158051,88.108818 259.022583,88.824890 
z"/>
<path fill="#E1EDEF" opacity="1.000000" stroke="none" 
	d="
M180.673340,106.598358 
	C180.354630,106.713486 179.682297,106.754028 178.950119,106.552521 
	C179.366760,106.381569 179.843231,106.452675 180.673340,106.598358 
z"/>
<path fill="#AAB7BD" opacity="1.000000" stroke="none" 
	d="
M254.687958,106.667351 
	C255.335480,106.572289 256.125427,106.762924 257.028687,107.256622 
	C256.371460,107.357475 255.600922,107.155258 254.687958,106.667351 
z"/>
<path fill="#E1EDEF" opacity="1.000000" stroke="none" 
	d="
M178.691238,105.819893 
	C178.312500,105.525154 177.919998,104.946220 177.721527,104.199081 
	C178.169525,104.532478 178.423492,105.034088 178.691238,105.819893 
z"/>
<path fill="#E1EDEF" opacity="1.000000" stroke="none" 
	d="
M223.720428,103.809998 
	C223.309875,103.543922 222.873505,102.990967 222.611649,102.256500 
	C223.088989,102.557693 223.391815,103.040405 223.720428,103.809998 
z"/>
<path fill="#E6F2F5" opacity="1.000000" stroke="none" 
	d="
M305.361511,102.759117 
	C305.038177,102.442085 304.802216,101.871506 304.751831,101.162544 
	C305.107880,101.517967 305.278381,102.011772 305.361511,102.759117 
z"/>
<path fill="#AAB7BD" opacity="1.000000" stroke="none" 
	d="
M250.686279,99.094704 
	C251.052200,99.453690 251.291122,100.080780 251.343170,100.840073 
	C250.957291,100.435783 250.758286,99.899300 250.686279,99.094704 
z"/>
<path fill="#E1EDEF" opacity="1.000000" stroke="none" 
	d="
M245.017380,100.809662 
	C244.758804,100.405884 244.665085,99.856949 244.768112,99.160515 
	C245.037323,99.563515 245.109772,100.114014 245.017380,100.809662 
z"/>
<path fill="#B1BEC4" opacity="1.000000" stroke="none" 
	d="
M259.371826,98.879166 
	C259.013031,98.534149 258.743134,97.914215 258.669250,97.160957 
	C259.063751,97.553169 259.262207,98.078712 259.371826,98.879166 
z"/>
<path fill="#E1EDEF" opacity="1.000000" stroke="none" 
	d="
M169.903442,91.235420 
	C170.106400,91.640167 170.128006,92.253128 169.927902,92.946915 
	C169.711487,92.499702 169.716797,91.971664 169.903442,91.235420 
z"/>
<path fill="#E1EDEF" opacity="1.000000" stroke="none" 
	d="
M223.024292,89.799744 
	C222.811234,89.383804 222.747772,88.806145 222.904907,88.090561 
	C223.141632,88.514435 223.157745,89.076225 223.024292,89.799744 
z"/>
<path fill="#E1EDEF" opacity="1.000000" stroke="none" 
	d="
M243.035156,86.749039 
	C242.840271,86.353058 242.820557,85.749268 243.012207,85.059113 
	C243.219147,85.495575 243.214737,86.018410 243.035156,86.749039 
z"/>
<path fill="#E6F2F5" opacity="1.000000" stroke="none" 
	d="
M272.898132,81.229240 
	C272.956451,81.669022 272.780548,82.294533 272.337097,82.960396 
	C272.267670,82.472153 272.465759,81.943565 272.898132,81.229240 
z"/>
<path fill="#E1EDEF" opacity="1.000000" stroke="none" 
	d="
M172.686676,81.173065 
	C172.359665,81.399704 171.707458,81.498741 171.014923,81.327255 
	C171.436874,81.052979 171.899185,81.049225 172.686676,81.173065 
z"/>
<path fill="#E1EDEF" opacity="1.000000" stroke="none" 
	d="
M162.298737,81.262100 
	C162.733109,81.538857 163.103348,82.093788 163.280548,82.808136 
	C162.803207,82.491783 162.518890,82.016022 162.298737,81.262100 
z"/>
<path fill="#E1EDEF" opacity="1.000000" stroke="none" 
	d="
M224.106796,80.819344 
	C223.827164,80.440933 223.682785,79.891289 223.732117,79.184387 
	C224.031219,79.567451 224.136642,80.107780 224.106796,80.819344 
z"/>
<path fill="#E6F2F5" opacity="1.000000" stroke="none" 
	d="
M283.732239,71.327690 
	C283.459717,71.746140 282.912079,72.107643 282.201233,72.284561 
	C282.511078,71.823570 282.984131,71.547157 283.732239,71.327690 
z"/>
<path fill="#E1EDEF" opacity="1.000000" stroke="none" 
	d="
M239.730927,72.225342 
	C239.450668,72.678848 238.888199,73.049538 238.166290,73.219193 
	C238.487473,72.726288 238.968079,72.434410 239.730927,72.225342 
z"/>
<path fill="#141B26" opacity="1.000000" stroke="none" 
	d="
M209.008316,77.801704 
	C210.075958,79.963432 211.143600,82.125160 212.279846,84.896118 
	C212.534149,86.014458 212.719818,86.523575 212.905487,87.032684 
	C211.520294,93.782555 210.473679,100.631638 208.542419,107.221481 
	C207.967331,109.183830 204.910950,110.418999 202.991486,111.987350 
	C201.631531,109.907188 199.250595,107.903854 199.087250,105.733627 
	C198.355789,96.013924 197.601624,86.089272 206.126190,78.137772 
	C207.497482,77.903656 208.252899,77.852684 209.008316,77.801704 
z"/>
<path fill="#141B26" opacity="1.000000" stroke="none" 
	d="
M291.596649,100.341003 
	C289.759888,103.678246 288.273651,108.200813 284.255829,106.578239 
	C282.062317,105.692383 280.221832,101.148071 280.212891,98.247513 
	C280.196869,93.060463 281.098633,87.664612 282.798706,82.766304 
	C283.631775,80.366043 287.117096,78.886314 289.402039,76.989967 
	C290.952789,79.458839 293.747742,81.904167 293.794983,84.401482 
	C293.893066,89.584366 292.532837,94.794853 291.596649,100.341003 
z"/>
<path fill="#E6F2F5" opacity="1.000000" stroke="none" 
	d="
M297.351929,93.664139 
	C298.400421,93.414154 300.062256,93.384148 300.086823,93.570213 
	C300.295441,95.151108 300.206085,96.771309 300.206085,98.379730 
	C299.617706,98.458878 299.029327,98.538025 298.440948,98.617172 
	C298.029388,97.072876 297.617798,95.528580 297.351929,93.664139 
z"/>
<path fill="#E6F2F5" opacity="1.000000" stroke="none" 
	d="
M303.985382,57.129974 
	C303.848785,58.413685 303.707825,59.327343 303.566864,60.241001 
	C303.203278,60.257351 302.839722,60.273697 302.476135,60.290047 
	C302.341095,58.506016 302.206055,56.721981 302.071014,54.937950 
	C302.390930,54.847164 302.710846,54.756378 303.030762,54.665596 
	C303.347504,55.363705 303.664246,56.061813 303.985382,57.129974 
z"/>
<path fill="#E1EDEF" opacity="1.000000" stroke="none" 
	d="
M208.940536,77.499947 
	C208.252899,77.852684 207.497482,77.903656 206.367645,77.891800 
	C206.953064,77.618706 207.912918,77.408447 208.940536,77.499947 
z"/>
<path fill="#E1EDEF" opacity="1.000000" stroke="none" 
	d="
M213.117340,86.896805 
	C212.719818,86.523575 212.534149,86.014458 212.446945,85.240219 
	C212.806686,85.570374 213.067947,86.165649 213.117340,86.896805 
z"/>
</svg>